<svg xmlns="http://www.w3.org/2000/svg" viewBox="0 0 32 32" width="39px" height="39px">
  <path fill="#25D366" d="M16 0c8.837 0 16 7.163 16 16 0 8.837-7.163 16-16 16-2.82 0-5.448-.735-7.758-2.016L0 32l2.058-8.26C.748 21.448 0 18.82 0 16 0 7.163 7.163 0 16 0z"/>
  <path fill="#FFF" d="M16.658 6.095c-5.413 0-9.809 4.395-9.809 9.81 0 2.058.615 3.974 1.664 5.584l-.963 3.505 3.594-.944a9.773 9.773 0 0 0 5.514 1.649c5.415 0 9.809-4.394 9.809-9.81 0-5.413-4.394-9.809-9.809-9.809zm5.614 14.375c-.286.803-1.395 1.48-2.322 1.659-.615.121-1.411.22-4.065-.865-3.414-1.414-5.59-4.89-5.768-5.12-.176-.228-1.37-1.824-1.37-3.481 0-1.656.866-2.478 1.173-2.823.285-.337.635-.423.85-.423.216 0 .427.004.612.011.198.009.464-.076.726.551.286.678.973 2.345 1.058 2.514.083.169.145.367.03.595-.121.253-.226.366-.415.594-.198.228-.438.497-.619.665-.198.194-.404.405-.176.793.228.388 1.014 1.658 2.186 2.688 1.503 1.34 2.777 1.764 3.165 1.959.388.194.616.162.841-.097.228-.253 1.004-1.173 1.271-1.577.267-.404.534-.337.893-.202.36.135 2.268 1.07 2.65 1.265.385.196.643.296.737.462.09.169.09.978-.197 1.78z"/>
</svg>
